<mxfile host="www.draw.io" modified="2020-02-25T07:56:46.721Z" agent="Mozilla/5.0 (X11; Ubuntu; Linux x86_64; rv:73.0) Gecko/20100101 Firefox/73.0" etag="nOfKvRVtYwV8w2HSMNAM" version="12.7.4" type="github">
  <diagram id="Tn4nVpNVdFS9LEVDM1yp" name="Page-1">
    <mxGraphModel dx="2205" dy="1841" grid="1" gridSize="10" guides="1" tooltips="1" connect="1" arrows="1" fold="1" page="1" pageScale="1" pageWidth="850" pageHeight="1100" math="0" shadow="0">
      <root>
        <mxCell id="0" />
        <mxCell id="1" parent="0" />
        <mxCell id="xGJft0toyAKs8I9-mPKy-1" value="Controller" style="rounded=0;whiteSpace=wrap;html=1;" vertex="1" parent="1">
          <mxGeometry x="160" y="120" width="160" height="120" as="geometry" />
        </mxCell>
        <mxCell id="xGJft0toyAKs8I9-mPKy-2" value="ceph2" style="rounded=0;whiteSpace=wrap;html=1;" vertex="1" parent="1">
          <mxGeometry x="400" y="480" width="160" height="120" as="geometry" />
        </mxCell>
        <mxCell id="xGJft0toyAKs8I9-mPKy-3" value="ceph3" style="rounded=0;whiteSpace=wrap;html=1;" vertex="1" parent="1">
          <mxGeometry x="640" y="480" width="160" height="120" as="geometry" />
        </mxCell>
        <mxCell id="xGJft0toyAKs8I9-mPKy-4" value="Block1" style="rounded=0;whiteSpace=wrap;html=1;" vertex="1" parent="1">
          <mxGeometry x="640" y="120" width="160" height="120" as="geometry" />
        </mxCell>
        <mxCell id="xGJft0toyAKs8I9-mPKy-5" value="Compute1" style="rounded=0;whiteSpace=wrap;html=1;" vertex="1" parent="1">
          <mxGeometry x="400" y="120" width="160" height="120" as="geometry" />
        </mxCell>
        <mxCell id="xGJft0toyAKs8I9-mPKy-6" value="ceph1" style="rounded=0;whiteSpace=wrap;html=1;" vertex="1" parent="1">
          <mxGeometry x="165" y="480" width="160" height="120" as="geometry" />
        </mxCell>
        <mxCell id="xGJft0toyAKs8I9-mPKy-7" value="" style="endArrow=none;html=1;fillColor=#dae8fc;strokeColor=#6c8ebf;rounded=1;strokeWidth=6;" edge="1" parent="1">
          <mxGeometry width="50" height="50" relative="1" as="geometry">
            <mxPoint x="40" y="770" as="sourcePoint" />
            <mxPoint x="40" y="50" as="targetPoint" />
          </mxGeometry>
        </mxCell>
        <mxCell id="xGJft0toyAKs8I9-mPKy-8" value="&lt;div&gt;192.168.122.0/24&lt;/div&gt;" style="text;html=1;strokeColor=none;fillColor=none;align=center;verticalAlign=middle;whiteSpace=wrap;rounded=0;" vertex="1" parent="1">
          <mxGeometry x="-30" y="20" width="140" height="20" as="geometry" />
        </mxCell>
        <mxCell id="xGJft0toyAKs8I9-mPKy-9" value="" style="endArrow=none;html=1;fillColor=#dae8fc;strokeColor=#6c8ebf;strokeWidth=6;" edge="1" parent="1">
          <mxGeometry width="50" height="50" relative="1" as="geometry">
            <mxPoint x="40" y="360" as="sourcePoint" />
            <mxPoint x="720" y="360" as="targetPoint" />
          </mxGeometry>
        </mxCell>
        <mxCell id="xGJft0toyAKs8I9-mPKy-10" value="" style="endArrow=classic;html=1;entryX=0.5;entryY=1;entryDx=0;entryDy=0;fillColor=#dae8fc;strokeColor=#6c8ebf;strokeWidth=6;" edge="1" parent="1" target="xGJft0toyAKs8I9-mPKy-1">
          <mxGeometry width="50" height="50" relative="1" as="geometry">
            <mxPoint x="240" y="360" as="sourcePoint" />
            <mxPoint x="390" y="360" as="targetPoint" />
          </mxGeometry>
        </mxCell>
        <mxCell id="xGJft0toyAKs8I9-mPKy-11" value="" style="endArrow=classic;html=1;entryX=0.5;entryY=1;entryDx=0;entryDy=0;strokeWidth=6;fillColor=#dae8fc;strokeColor=#6c8ebf;" edge="1" parent="1">
          <mxGeometry width="50" height="50" relative="1" as="geometry">
            <mxPoint x="719.5" y="360" as="sourcePoint" />
            <mxPoint x="719.5" y="240" as="targetPoint" />
          </mxGeometry>
        </mxCell>
        <mxCell id="xGJft0toyAKs8I9-mPKy-12" value="" style="endArrow=classic;html=1;entryX=0.5;entryY=1;entryDx=0;entryDy=0;strokeWidth=6;fillColor=#dae8fc;strokeColor=#6c8ebf;" edge="1" parent="1">
          <mxGeometry width="50" height="50" relative="1" as="geometry">
            <mxPoint x="479.5" y="360" as="sourcePoint" />
            <mxPoint x="479.5" y="240" as="targetPoint" />
          </mxGeometry>
        </mxCell>
        <mxCell id="xGJft0toyAKs8I9-mPKy-13" value="" style="endArrow=none;html=1;fillColor=#dae8fc;strokeColor=#6c8ebf;strokeWidth=6;" edge="1" parent="1">
          <mxGeometry width="50" height="50" relative="1" as="geometry">
            <mxPoint x="40" y="680" as="sourcePoint" />
            <mxPoint x="720" y="680" as="targetPoint" />
          </mxGeometry>
        </mxCell>
        <mxCell id="xGJft0toyAKs8I9-mPKy-14" value="" style="endArrow=classic;html=1;strokeWidth=6;fillColor=#dae8fc;strokeColor=#6c8ebf;" edge="1" parent="1">
          <mxGeometry width="50" height="50" relative="1" as="geometry">
            <mxPoint x="719.5" y="680" as="sourcePoint" />
            <mxPoint x="720" y="600" as="targetPoint" />
          </mxGeometry>
        </mxCell>
        <mxCell id="xGJft0toyAKs8I9-mPKy-15" value="" style="endArrow=classic;html=1;strokeWidth=6;fillColor=#dae8fc;strokeColor=#6c8ebf;" edge="1" parent="1">
          <mxGeometry width="50" height="50" relative="1" as="geometry">
            <mxPoint x="479.5" y="680" as="sourcePoint" />
            <mxPoint x="480" y="600" as="targetPoint" />
          </mxGeometry>
        </mxCell>
        <mxCell id="xGJft0toyAKs8I9-mPKy-16" value="" style="endArrow=classic;html=1;strokeWidth=6;fillColor=#dae8fc;strokeColor=#6c8ebf;" edge="1" parent="1">
          <mxGeometry width="50" height="50" relative="1" as="geometry">
            <mxPoint x="239.5" y="680" as="sourcePoint" />
            <mxPoint x="240" y="600" as="targetPoint" />
          </mxGeometry>
        </mxCell>
        <mxCell id="xGJft0toyAKs8I9-mPKy-17" value="192.168.122.206" style="text;html=1;strokeColor=none;fillColor=none;align=center;verticalAlign=middle;whiteSpace=wrap;rounded=0;" vertex="1" parent="1">
          <mxGeometry x="155" y="220" width="170" height="20" as="geometry" />
        </mxCell>
        <mxCell id="xGJft0toyAKs8I9-mPKy-18" value="192.168.122.131" style="text;html=1;strokeColor=none;fillColor=none;align=center;verticalAlign=middle;whiteSpace=wrap;rounded=0;" vertex="1" parent="1">
          <mxGeometry x="635" y="220" width="170" height="20" as="geometry" />
        </mxCell>
        <mxCell id="xGJft0toyAKs8I9-mPKy-19" value="192.168.122.144" style="text;html=1;strokeColor=none;fillColor=none;align=center;verticalAlign=middle;whiteSpace=wrap;rounded=0;" vertex="1" parent="1">
          <mxGeometry x="395" y="220" width="170" height="20" as="geometry" />
        </mxCell>
        <mxCell id="xGJft0toyAKs8I9-mPKy-20" value="192.168.122.81" style="text;html=1;strokeColor=none;fillColor=none;align=center;verticalAlign=middle;whiteSpace=wrap;rounded=0;" vertex="1" parent="1">
          <mxGeometry x="635" y="580" width="170" height="20" as="geometry" />
        </mxCell>
        <mxCell id="xGJft0toyAKs8I9-mPKy-21" value="192.168.122.121" style="text;html=1;strokeColor=none;fillColor=none;align=center;verticalAlign=middle;whiteSpace=wrap;rounded=0;" vertex="1" parent="1">
          <mxGeometry x="395" y="580" width="170" height="20" as="geometry" />
        </mxCell>
        <mxCell id="xGJft0toyAKs8I9-mPKy-24" value="192.168.122.122" style="text;html=1;strokeColor=none;fillColor=none;align=center;verticalAlign=middle;whiteSpace=wrap;rounded=0;" vertex="1" parent="1">
          <mxGeometry x="155" y="580" width="170" height="20" as="geometry" />
        </mxCell>
        <mxCell id="xGJft0toyAKs8I9-mPKy-25" value="" style="endArrow=none;html=1;fillColor=#f8cecc;strokeColor=#b85450;strokeWidth=6;" edge="1" parent="1">
          <mxGeometry width="50" height="50" relative="1" as="geometry">
            <mxPoint x="880" y="760" as="sourcePoint" />
            <mxPoint x="880" y="10" as="targetPoint" />
          </mxGeometry>
        </mxCell>
        <mxCell id="xGJft0toyAKs8I9-mPKy-27" value="" style="endArrow=none;html=1;fillColor=#f8cecc;strokeColor=#b85450;strokeWidth=6;" edge="1" parent="1">
          <mxGeometry width="50" height="50" relative="1" as="geometry">
            <mxPoint x="880" y="50" as="sourcePoint" />
            <mxPoint x="240" y="50" as="targetPoint" />
          </mxGeometry>
        </mxCell>
        <mxCell id="xGJft0toyAKs8I9-mPKy-29" value="" style="endArrow=classic;html=1;entryX=0.5;entryY=0;entryDx=0;entryDy=0;fillColor=#f8cecc;strokeColor=#b85450;strokeWidth=6;" edge="1" parent="1" target="xGJft0toyAKs8I9-mPKy-1">
          <mxGeometry width="50" height="50" relative="1" as="geometry">
            <mxPoint x="240" y="50" as="sourcePoint" />
            <mxPoint x="420" y="310" as="targetPoint" />
          </mxGeometry>
        </mxCell>
        <mxCell id="xGJft0toyAKs8I9-mPKy-30" value="" style="endArrow=classic;html=1;entryX=0.5;entryY=0;entryDx=0;entryDy=0;fillColor=#f8cecc;strokeColor=#b85450;strokeWidth=6;" edge="1" parent="1">
          <mxGeometry width="50" height="50" relative="1" as="geometry">
            <mxPoint x="719.5" y="50" as="sourcePoint" />
            <mxPoint x="719.5" y="120" as="targetPoint" />
          </mxGeometry>
        </mxCell>
        <mxCell id="xGJft0toyAKs8I9-mPKy-31" value="" style="endArrow=classic;html=1;entryX=0.5;entryY=0;entryDx=0;entryDy=0;fillColor=#f8cecc;strokeColor=#b85450;strokeWidth=6;" edge="1" parent="1">
          <mxGeometry width="50" height="50" relative="1" as="geometry">
            <mxPoint x="479.5" y="50" as="sourcePoint" />
            <mxPoint x="479.5" y="120" as="targetPoint" />
          </mxGeometry>
        </mxCell>
        <mxCell id="xGJft0toyAKs8I9-mPKy-34" value="" style="endArrow=none;html=1;fillColor=#d5e8d4;strokeColor=#82b366;strokeWidth=6;" edge="1" parent="1">
          <mxGeometry width="50" height="50" relative="1" as="geometry">
            <mxPoint x="960" y="760" as="sourcePoint" />
            <mxPoint x="960" y="20" as="targetPoint" />
          </mxGeometry>
        </mxCell>
        <mxCell id="xGJft0toyAKs8I9-mPKy-35" value="&lt;div&gt;10.0.1.0/24&lt;/div&gt;" style="text;html=1;strokeColor=none;fillColor=none;align=center;verticalAlign=middle;whiteSpace=wrap;rounded=0;" vertex="1" parent="1">
          <mxGeometry x="940" y="-10" width="40" height="20" as="geometry" />
        </mxCell>
        <mxCell id="xGJft0toyAKs8I9-mPKy-38" value="&lt;div&gt;10.0.0.0/24&lt;/div&gt;" style="text;html=1;strokeColor=none;fillColor=none;align=center;verticalAlign=middle;whiteSpace=wrap;rounded=0;" vertex="1" parent="1">
          <mxGeometry x="860" y="-10" width="40" height="20" as="geometry" />
        </mxCell>
        <mxCell id="xGJft0toyAKs8I9-mPKy-40" value="" style="endArrow=none;html=1;strokeColor=#82b366;strokeWidth=6;fillColor=#d5e8d4;" edge="1" parent="1">
          <mxGeometry width="50" height="50" relative="1" as="geometry">
            <mxPoint x="240" y="400" as="sourcePoint" />
            <mxPoint x="960" y="400" as="targetPoint" />
          </mxGeometry>
        </mxCell>
        <mxCell id="xGJft0toyAKs8I9-mPKy-41" value="" style="endArrow=classic;html=1;strokeColor=#82b366;strokeWidth=6;fillColor=#d5e8d4;" edge="1" parent="1" target="xGJft0toyAKs8I9-mPKy-6">
          <mxGeometry width="50" height="50" relative="1" as="geometry">
            <mxPoint x="243" y="400" as="sourcePoint" />
            <mxPoint x="370" y="380" as="targetPoint" />
          </mxGeometry>
        </mxCell>
        <mxCell id="xGJft0toyAKs8I9-mPKy-42" value="" style="endArrow=classic;html=1;strokeColor=#82b366;strokeWidth=6;fillColor=#d5e8d4;" edge="1" parent="1">
          <mxGeometry width="50" height="50" relative="1" as="geometry">
            <mxPoint x="479.43" y="400" as="sourcePoint" />
            <mxPoint x="480.57285714285734" y="480" as="targetPoint" />
          </mxGeometry>
        </mxCell>
        <mxCell id="xGJft0toyAKs8I9-mPKy-43" value="" style="endArrow=classic;html=1;strokeColor=#82b366;strokeWidth=6;fillColor=#d5e8d4;" edge="1" parent="1">
          <mxGeometry width="50" height="50" relative="1" as="geometry">
            <mxPoint x="719.4300000000001" y="400" as="sourcePoint" />
            <mxPoint x="720.5728571428574" y="480" as="targetPoint" />
          </mxGeometry>
        </mxCell>
      </root>
    </mxGraphModel>
  </diagram>
</mxfile>
